<?xml version="1.0" encoding="UTF-8"?>
<svg xmlns="http://www.w3.org/2000/svg" viewBox="0 0 679 340">
  <path d="M453.75,340.06h-45.05c-8.18,0-15.29-5.54-17.35-13.45-5.98-23-26.93-40.04-51.78-40.04s-45.8,17.03-51.78,40.04c-2.06,7.91-9.17,13.45-17.35,13.45h-45.05c-10.94,0-19.41-9.73-17.74-20.54,9.91-63.89,65.29-112.95,131.91-112.95s122,49.06,131.91,112.95c1.68,10.81-6.8,20.54-17.74,20.54Z" fill="#231f20"/>
  <path d="M554.8,340.06h-44.35c-9.13,0-16.87-6.85-17.81-15.93-8-77.39-73.59-137.95-153.06-137.95s-145.06,60.56-153.06,137.95c-.94,9.08-8.68,15.93-17.81,15.93h-44.35c-10.42,0-18.72-8.85-17.88-19.24,4.47-55.22,28.12-106.53,67.73-146.14,44.17-44.17,102.9-68.5,165.37-68.5s121.2,24.33,165.38,68.5c39.61,39.61,63.26,90.92,67.73,146.14.84,10.38-7.46,19.24-17.88,19.24Z" fill="#231f20"/>
  <path d="M661.22,340.06h-44.23c-9.51,0-17.29-7.43-17.9-16.92-4.03-63.1-30.52-121.86-75.63-166.96-48.83-48.83-114.83-76.17-183.89-76.17-69.46,0-134.77,27.05-183.89,76.17-45.11,45.11-71.61,103.88-75.63,166.98-.6,9.48-8.39,16.91-17.89,16.91H17.93c-10.25,0-18.46-8.58-17.91-18.81,2.13-39.25,10.92-77.37,26.23-113.57,17.13-40.5,41.64-76.86,72.86-108.08s67.58-55.73,108.08-72.86C249.15,9,293.69,0,339.58,0s90.43,9,132.38,26.74c40.5,17.13,76.86,41.64,108.08,72.86,31.22,31.22,55.73,67.58,72.86,108.08,15.31,36.19,24.11,74.32,26.23,113.57.55,10.23-7.66,18.81-17.91,18.81Z" fill="#231f20"/>
  <path d="M451.93,313.27c-12.11-50.81-57.89-88.71-112.36-88.71v44c31.43,0,58.19,20.39,67.74,48.64.98,2.9,3.69,4.85,6.74,4.85h30.93c4.6,0,8-4.31,6.93-8.78Z" fill="#fff"/>
  <path d="M553.91,314.04c-5.71-47.81-27.11-92.06-61.69-126.63-40.41-40.41-94.02-62.83-151.11-63.22-.51,0-1.02,0-1.54,0v43.99c86.57,0,158.4,64.34,170.18,147.71.5,3.53,3.49,6.16,7.05,6.16h30.03c4.29,0,7.58-3.76,7.07-8.02Z" fill="#fff"/>
  <path d="M660.63,314.39c-2.7-34.41-10.84-67.85-24.32-99.7-16.22-38.35-39.44-72.79-69.01-102.36-29.57-29.57-64.01-52.79-102.36-69.01-39.72-16.8-81.9-25.32-125.37-25.32v44.02c1.28,0,2.55-.01,3.83,0,72.84.98,141.17,29.8,192.79,81.42,46.7,46.7,74.74,107.08,80.38,172.1.32,3.68,3.39,6.51,7.09,6.51h29.86c4.15,0,7.43-3.53,7.11-7.66Z" fill="#fff"/>
</svg>
